<?xml version="1.0" standalone="no"?>
<!DOCTYPE svg PUBLIC "-//W3C//DTD SVG 20010904//EN"
 "http://www.w3.org/TR/2001/REC-SVG-20010904/DTD/svg10.dtd">
<svg version="1.0" xmlns="http://www.w3.org/2000/svg"
 width="700.000000pt" height="700.000000pt" viewBox="0 0 700.000000 700.000000"
 preserveAspectRatio="xMidYMid meet">
<metadata>
Created by potrace 1.14, written by Peter Selinger 2001-2017
</metadata>
<g transform="translate(0.000000,700.000000) scale(0.100000,-0.100000)"
fill="#000000" stroke="none">
<path d="M243 6986 c-96 -31 -167 -94 -211 -186 -35 -74 -38 -200 -5 -272 28
-61 100 -138 156 -166 49 -24 129 -42 170 -38 25 3 39 -23 503 -951 l478 -955
-18 -26 c-53 -81 -70 -136 -70 -217 1 -67 5 -90 29 -139 35 -73 92 -130 165
-165 44 -21 70 -26 130 -26 41 0 89 4 106 8 29 7 34 4 115 -90 46 -54 96 -111
110 -128 15 -16 77 -88 139 -160 62 -71 124 -144 139 -160 137 -157 245 -282
346 -400 66 -77 134 -156 152 -175 17 -19 41 -47 52 -62 l22 -27 -22 -63 c-35
-103 -16 -220 49 -306 l26 -34 -395 -787 c-318 -635 -398 -786 -414 -787 -41
-3 -102 -24 -146 -52 -138 -88 -192 -269 -124 -420 35 -77 110 -150 186 -179
78 -29 185 -26 259 8 63 30 139 102 164 157 l17 37 1544 0 1544 1 21 -42 c29
-59 96 -123 160 -153 46 -22 69 -26 140 -26 108 1 176 31 248 109 192 211 46
553 -239 560 l-69 2 -311 560 c-171 307 -324 582 -339 609 -15 28 -58 106 -96
175 l-70 125 33 54 c80 132 59 303 -51 410 l-43 42 48 172 c27 95 53 188 59
207 9 31 257 928 277 1004 7 25 16 31 63 43 99 25 178 87 225 176 l20 37 415
0 416 0 12 -35 c16 -43 96 -127 140 -146 l34 -14 -6 -80 c-4 -44 -8 -91 -10
-105 -2 -14 -8 -47 -12 -75 -4 -27 -8 -52 -9 -55 -2 -8 -17 -105 -17 -107 1
-2 -4 -17 -9 -35 -5 -18 -12 -46 -15 -63 -29 -172 -173 -564 -276 -752 -60
-110 -78 -135 -95 -128 -44 16 -132 17 -187 1 -99 -29 -163 -80 -209 -167
-115 -216 35 -485 277 -494 185 -7 333 118 355 301 6 56 4 76 -17 138 l-24 73
43 69 c41 68 134 252 176 349 121 285 220 671 249 980 4 39 8 77 10 85 1 8 3
23 3 32 1 10 18 25 44 36 87 39 153 117 182 217 45 153 -35 325 -181 392 -33
15 -54 31 -55 41 0 9 -2 26 -4 37 -2 11 -7 39 -10 62 -3 24 -8 48 -10 55 -2 7
-6 24 -9 38 -2 14 -13 61 -25 105 -112 436 -341 843 -665 1183 l-70 72 13 35
c14 41 18 124 6 175 -13 63 -64 143 -116 185 -72 56 -107 69 -214 79 -71 6
-177 -39 -238 -101 -127 -126 -132 -328 -12 -460 90 -101 209 -136 340 -100
l70 19 81 -85 c277 -290 502 -703 594 -1092 15 -66 31 -142 35 -169 4 -27 9
-54 11 -60 2 -6 -12 -20 -31 -30 -50 -27 -106 -86 -132 -137 l-22 -44 -412 0
c-388 1 -413 2 -423 19 -50 83 -71 110 -113 141 -93 68 -230 84 -334 38 l-47
-21 -243 195 c-134 107 -253 202 -264 211 -11 9 -166 134 -345 276 -179 143
-328 264 -332 270 -4 6 -5 20 -1 31 23 68 3 194 -42 264 -85 136 -274 194
-415 129 -100 -45 -164 -117 -193 -215 -15 -50 -16 -134 -3 -184 7 -24 -2 -34
-106 -120 -62 -52 -140 -116 -173 -142 -33 -27 -74 -60 -90 -75 -17 -15 -64
-54 -105 -87 -89 -71 -63 -50 -345 -283 -11 -10 -45 -37 -75 -62 -30 -25 -57
-47 -60 -50 -3 -3 -27 -23 -55 -46 -27 -22 -126 -103 -220 -180 -93 -77 -176
-143 -183 -148 -13 -8 -45 11 -38 23 4 6 14 97 22 191 2 25 6 63 8 85 3 22 8
73 11 114 4 41 8 82 10 91 2 10 6 57 10 106 4 49 9 96 10 105 2 8 6 53 10 100
4 46 8 86 10 89 2 3 6 45 10 94 4 49 8 98 11 109 2 11 6 59 9 106 3 47 8 93
10 101 2 8 7 47 10 85 3 39 8 93 11 120 3 28 7 62 8 77 2 33 -3 28 68 62 70
33 147 116 171 183 64 177 -24 368 -201 437 -50 19 -160 23 -210 7 -89 -27
-176 -104 -216 -190 -31 -67 -30 -207 2 -274 27 -57 80 -118 129 -148 l35 -22
-8 -71 c-3 -39 -8 -82 -9 -96 -1 -14 -6 -59 -10 -100 -11 -113 -12 -119 -19
-195 -4 -38 -9 -88 -11 -110 -3 -22 -7 -65 -10 -95 -3 -30 -7 -73 -9 -95 -3
-22 -7 -69 -11 -105 -4 -36 -8 -81 -10 -100 -2 -19 -7 -66 -10 -105 -4 -38 -8
-81 -10 -95 -2 -14 -7 -61 -10 -105 -4 -44 -8 -91 -10 -105 -2 -14 -7 -54 -10
-90 -4 -36 -8 -67 -10 -68 -2 -2 -211 410 -464 916 l-460 920 20 21 c37 39 69
126 73 192 8 141 -64 262 -191 325 -63 32 -176 41 -240 20z m158 -230 c29 -12
52 -65 46 -109 -7 -55 -42 -88 -99 -94 -39 -5 -49 -2 -77 24 -51 44 -57 116
-14 161 34 36 84 42 144 18z m1454 -222 c68 -32 83 -128 28 -178 -98 -91 -244
37 -165 144 37 49 82 60 137 34z m3871 -27 c27 -29 31 -41 29 -77 -4 -63 -48
-105 -111 -104 -122 2 -152 166 -39 215 37 16 88 2 121 -34z m-2143 -677 c64
-72 11 -182 -89 -182 -112 0 -143 168 -40 213 40 17 99 3 129 -31z m-93 -407
c60 -2 87 3 133 22 l59 23 595 -475 595 -476 -8 -36 c-24 -122 10 -235 93
-316 l42 -41 -60 -215 c-33 -118 -73 -261 -89 -319 -16 -58 -51 -186 -79 -285
-135 -489 -161 -583 -161 -588 0 -3 -24 -10 -52 -17 -89 -20 -165 -73 -214
-148 l-28 -44 -100 7 c-56 4 -126 8 -156 10 -30 2 -91 6 -135 9 -44 4 -105 8
-135 11 -30 2 -98 7 -150 11 -52 4 -113 8 -135 10 -22 1 -59 3 -83 3 -41 1
-43 2 -68 54 -67 144 -216 220 -372 192 l-63 -12 -69 82 c-38 45 -75 89 -82
96 -7 8 -83 95 -168 194 -85 99 -157 182 -161 185 -3 3 -34 39 -69 80 -35 41
-68 80 -74 85 -6 6 -63 71 -126 144 -115 134 -127 149 -234 270 -31 35 -56 67
-56 71 0 4 9 33 20 65 19 54 20 85 7 201 -2 19 77 90 359 319 184 150 330 270
334 275 3 3 41 35 85 70 44 35 82 67 85 70 3 3 67 57 144 119 76 62 148 122
160 131 11 10 73 61 136 113 l115 94 45 -21 c30 -13 71 -21 120 -23z m1768
-929 c26 -17 51 -68 47 -93 -2 -9 -4 -21 -4 -28 -1 -6 -13 -25 -27 -42 -55
-65 -153 -47 -184 35 -16 40 -5 86 28 116 41 39 92 43 140 12z m1439 16 c8 0
28 -14 44 -31 58 -62 25 -169 -57 -185 -93 -17 -164 80 -120 164 18 35 75 65
104 56 8 -2 20 -4 29 -4z m-5034 -260 c64 -72 11 -186 -87 -183 -68 2 -114 60
-103 129 11 65 55 97 122 89 29 -3 48 -12 68 -35z m1451 -1675 c69 -45 56
-159 -21 -192 -69 -28 -136 7 -153 81 -21 94 91 165 174 111z m1599 -135 c41
-45 38 -101 -7 -146 -28 -28 -42 -34 -76 -34 -34 0 -48 6 -76 34 -19 19 -35
42 -35 53 -4 64 13 97 63 122 49 24 91 15 131 -29z m1336 21 c27 -17 51 -68
46 -97 -2 -10 -4 -24 -4 -31 -1 -19 -49 -62 -78 -69 -45 -12 -95 8 -121 46
-69 102 52 220 157 151z m-2499 -126 c52 -4 118 -8 145 -11 28 -2 91 -6 140
-9 50 -3 109 -7 130 -10 22 -2 85 -6 140 -10 55 -4 118 -8 140 -10 22 -2 45
-4 51 -4 7 -1 15 -13 18 -27 29 -114 186 -224 314 -220 29 1 57 -3 61 -8 5 -6
190 -337 411 -735 402 -723 403 -724 386 -750 -10 -14 -24 -41 -32 -59 l-14
-32 -1544 0 -1544 0 -22 44 c-12 25 -37 61 -57 80 l-36 34 385 769 384 768 39
1 c52 2 93 9 129 23 52 21 125 81 157 132 32 48 33 49 78 44 25 -2 89 -7 141
-10z m-1468 -1896 c67 -31 82 -124 28 -177 -66 -67 -172 -32 -187 62 -14 85
79 152 159 115z m3750 -18 c29 -26 33 -35 33 -81 0 -46 -4 -55 -33 -81 -47
-42 -108 -41 -151 2 -29 28 -36 49 -32 89 10 92 115 132 183 71z"/>
<path d="M3839 4610 c0 -11 0 -40 0 -65 0 -25 0 -67 0 -93 l1 -49 113 0 112 0
-1 106 c-1 58 -2 109 -3 114 0 4 -50 7 -111 7 -103 0 -110 -1 -111 -20z"/>
<path d="M2823 3724 l0 -114 111 2 111 3 3 112 3 112 -114 0 -113 -1 -1 -114z"/>
<path d="M4179 1568 c0 -7 -1 -58 -1 -113 l-1 -100 108 0 c86 0 108 3 114 15
5 12 7 136 2 198 -1 9 -30 12 -111 12 -81 0 -110 -3 -111 -12z"/>
<path d="M3279 905 c-5 0 -4 -225 1 -226 7 -1 180 -1 203 0 15 1 17 13 17 111
0 98 -2 110 -17 111 -13 1 -178 4 -204 4z"/>
<path d="M4418 6772 c-13 -2 -16 -20 -16 -100 0 -53 -1 -103 -1 -109 -1 -10
-30 -13 -111 -13 -103 0 -110 -1 -111 -20 0 -11 -1 -62 -2 -114 l-2 -93 106 0
c58 0 110 -2 115 -5 5 -4 8 -54 7 -112 -1 -102 0 -106 20 -107 111 -4 184 -4
195 -1 8 3 12 35 12 113 0 60 3 109 8 110 4 0 54 1 112 2 l105 2 1 100 c0 55
-2 106 -4 113 -3 8 -35 12 -113 12 l-109 0 0 110 c0 81 -3 110 -12 111 -29 3
-186 4 -200 1z m212 -336 l0 -114 -112 1 -113 2 -1 112 -1 111 113 1 114 1 0
-114z"/>
<path d="M5531 5307 l-1 -114 113 1 112 1 1 113 2 112 -113 0 -114 0 0 -113z"/>
<path d="M227 5073 c-3 -7 -1 -196 2 -213 1 -3 49 -6 109 -5 l107 0 3 113 3
112 -110 0 c-60 0 -112 -3 -114 -7z"/>
<path d="M790 2596 l0 -113 113 1 112 1 1 113 0 112 -113 0 -113 0 0 -114z"/>
<path d="M1244 1808 l1 -113 110 0 110 0 3 113 3 112 -115 0 -114 0 2 -112z"/>
<path d="M1021 1680 c-9 -18 -7 -197 1 -206 4 -3 54 -6 112 -6 l106 1 1 -32
c0 -18 2 -68 2 -112 l2 -80 112 -2 c62 -1 112 1 112 5 -1 4 -1 55 0 113 l1
107 107 1 c59 1 109 4 112 7 3 2 5 52 5 109 l1 105 -25 1 c-67 3 -191 2 -195
-3 -2 -2 -5 -52 -6 -111 -2 -69 -6 -107 -13 -108 -12 0 -197 0 -208 1 -3 0 -6
47 -6 105 0 58 -2 109 -6 112 -3 4 -52 7 -107 7 -80 1 -102 -2 -108 -14z"/>
<path d="M6550 1583 l0 -113 38 -1 c73 -1 177 3 181 7 3 2 5 51 6 109 1 89 -1
105 -14 106 -9 1 -60 2 -114 3 l-97 1 0 -112z"/>
</g>
</svg>
