<?xml version="1.0"?>
<svg xmlns="http://www.w3.org/2000/svg" xmlns:xlink="http://www.w3.org/1999/xlink" xmlns:svgjs="http://svgjs.com/svgjs" version="1.1" width="512" height="512" x="0" y="0" viewBox="0 0 496 496" style="enable-background:new 0 0 512 512" xml:space="preserve" class=""><g><path xmlns="http://www.w3.org/2000/svg" d="m478.464844 161c-7.296875-57.945312-40.402344-96.03125-56.503906-111.390625 1.296874-2.953125 2.039062-6.195313 2.039062-9.609375 0-13.230469-10.769531-24-24-24s-24 10.769531-24 24 10.769531 24 24 24c3.976562 0 7.664062-1.0625 10.96875-2.777344 14.574219 13.882813 44.582031 48.320313 51.503906 100.777344-6.066406 2.640625-10.761718 7.734375-13 14.007812h-58.953125c-3.3125-9.289062-12.113281-16-22.527343-16-4.640626 0-8.9375 1.382813-12.609376 3.671876l-84.808593-67.847657c.867187-2.472656 1.425781-5.078125 1.425781-7.832031 0-13.230469-10.769531-24-24-24s-24 10.769531-24 24c0 2.871094.59375 5.59375 1.519531 8.144531l-101.214843 83.359375c-.679688-.40625-1.375-.800781-2.105469-1.144531l11.511719-115.128906c10.472656-2.574219 18.289062-11.972657 18.289062-23.230469 0-13.230469-10.769531-24-24-24s-24 10.769531-24 24c0 9.574219 5.671875 17.785156 13.800781 21.640625l-11.007812 110.046875-65.546875-131.070312c4.160156-4.320313 6.753906-10.160157 6.753906-16.617188 0-13.230469-10.769531-24-24-24s-24 10.769531-24 24 10.769531 24 24 24c.992188 0 1.945312-.175781 2.902344-.296875l67.839844 135.679687c-4.148438 4.320313-6.742188 10.160157-6.742188 16.617188 0 13.230469 10.769531 24 24 24 3.089844 0 6.023438-.632812 8.734375-1.703125l74.480469 85.933594c-1.992188 3.488281-3.214844 7.472656-3.214844 11.769531 0 6.457031 2.59375 12.296875 6.742188 16.609375l-55.742188 111.488281c-12.761719.535156-23 11.007813-23 23.902344 0 13.230469 10.769531 24 24 24 10.414062 0 19.214844-6.710938 22.527344-16h218.953125c3.3125 9.289062 12.113281 16 22.527343 16 13.230469 0 24-10.769531 24-24s-10.769531-24-24-24c-1.351562 0-2.664062.183594-3.960937.398438l-58.117187-104.605469c3.726562-4.234375 6.070312-9.722657 6.070312-15.792969 0-8.113281-4.070312-15.273438-10.246094-19.617188l27.925782-100.550781c9.671874-.6875 17.710937-7.046875 20.847656-15.832031h58.953125c2.304687 6.464844 7.230469 11.664062 13.566406 14.222656-4.117187 50.28125-21.382813 84.273438-30.757813 99.335938-2.601562-.957032-5.367187-1.558594-8.289062-1.558594-13.230469 0-24 10.769531-24 24s10.769531 24 24 24 24-10.769531 24-24c0-4.40625-1.28125-8.480469-3.359375-12.039062 10.984375-16.960938 30.039063-53.746094 34.40625-109.144532 9.785156-3.023437 16.953125-12.046875 16.953125-22.816406 0-10.984375-7.457031-20.160156-17.535156-23zm-78.464844-113c-4.40625 0-8-3.59375-8-8s3.59375-8 8-8 8 3.59375 8 8-3.59375 8-8 8zm-241.542969 404.96875 54.632813-109.265625c.964844.121094 1.910156.296875 2.910156.296875 9.824219 0 18.265625-5.945312 21.976562-14.40625l67 4.78125c2.808594 10.128906 12.007813 17.625 23.023438 17.625 1.351562 0 2.664062-.183594 3.960938-.398438l58.109374 104.597657c-2 2.273437-3.566406 4.898437-4.597656 7.800781h-218.945312c-1.582032-4.433594-4.390625-8.230469-8.070313-11.03125zm57.542969-140.96875c4.40625 0 8 3.59375 8 8s-3.59375 8-8 8-8-3.59375-8-8 3.59375-8 8-8zm112 24c-4.40625 0-8-3.59375-8-8s3.59375-8 8-8 8 3.59375 8 8-3.59375 8-8 8zm-21.96875-17.59375-67-4.78125c-2.816406-10.128906-12.023438-17.625-23.03125-17.625-3.089844 0-6.023438.632812-8.734375 1.703125l-74.480469-85.933594c1.992188-3.488281 3.214844-7.472656 3.214844-11.769531 0-2.871094-.59375-5.59375-1.519531-8.152344l101.214843-83.351562c3.609376 2.175781 7.792969 3.503906 12.304688 3.503906 4.640625 0 8.9375-1.382812 12.609375-3.671875l84.804687 67.847656c-.855468 2.464844-1.414062 5.070313-1.414062 7.824219 0 8.113281 4.070312 15.273438 10.246094 19.617188l-27.925782 100.550781c-9.089843.648437-16.800781 6.273437-20.289062 14.238281zm-58.03125-238.40625c4.40625 0 8 3.59375 8 8s-3.59375 8-8 8-8-3.59375-8-8 3.59375-8 8-8zm-120-48c4.40625 0 8 3.59375 8 8s-3.59375 8-8 8-8-3.59375-8-8 3.59375-8 8-8zm-112-8c0-4.40625 3.59375-8 8-8s8 3.59375 8 8-3.59375 8-8 8-8-3.59375-8-8zm88 176c0-4.40625 3.59375-8 8-8s8 3.59375 8 8-3.59375 8-8 8-8-3.59375-8-8zm40 280c-4.40625 0-8-3.59375-8-8s3.59375-8 8-8 8 3.59375 8 8-3.59375 8-8 8zm272-8c0 4.40625-3.59375 8-8 8s-8-3.59375-8-8 3.59375-8 8-8 8 3.59375 8 8zm-48-280c-4.40625 0-8-3.59375-8-8s3.59375-8 8-8 8 3.59375 8 8-3.59375 8-8 8zm56 144c-4.40625 0-8-3.59375-8-8s3.59375-8 8-8 8 3.59375 8 8-3.59375 8-8 8zm48-144c-4.40625 0-8-3.59375-8-8s3.59375-8 8-8 8 3.59375 8 8-3.59375 8-8 8zm0 0" fill="#ffb1a3" data-original="#000000" style="" class=""/><path xmlns="http://www.w3.org/2000/svg" d="m392 112h16v16h-16zm0 0" fill="#ffb1a3" data-original="#000000" style="" class=""/><path xmlns="http://www.w3.org/2000/svg" d="m272 168h16v16h-16zm0 0" fill="#ffb1a3" data-original="#000000" style="" class=""/><path xmlns="http://www.w3.org/2000/svg" d="m200 224h16v16h-16zm0 0" fill="#ffb1a3" data-original="#000000" style="" class=""/><path xmlns="http://www.w3.org/2000/svg" d="m56 304h16v16h-16zm0 0" fill="#ffb1a3" data-original="#000000" style="" class=""/><path xmlns="http://www.w3.org/2000/svg" d="m104 376h16v16h-16zm0 0" fill="#ffb1a3" data-original="#000000" style="" class=""/><path xmlns="http://www.w3.org/2000/svg" d="m72 376h16v16h-16zm0 0" fill="#ffb1a3" data-original="#000000" style="" class=""/><path xmlns="http://www.w3.org/2000/svg" d="m88 360h16v16h-16zm0 0" fill="#ffb1a3" data-original="#000000" style="" class=""/><path xmlns="http://www.w3.org/2000/svg" d="m88 392h16v16h-16zm0 0" fill="#ffb1a3" data-original="#000000" style="" class=""/><path xmlns="http://www.w3.org/2000/svg" d="m312 16h16v16h-16zm0 0" fill="#ffb1a3" data-original="#000000" style="" class=""/><path xmlns="http://www.w3.org/2000/svg" d="m312 48h16v16h-16zm0 0" fill="#ffb1a3" data-original="#000000" style="" class=""/><path xmlns="http://www.w3.org/2000/svg" d="m328 32h16v16h-16zm0 0" fill="#ffb1a3" data-original="#000000" style="" class=""/><path xmlns="http://www.w3.org/2000/svg" d="m296 32h16v16h-16zm0 0" fill="#ffb1a3" data-original="#000000" style="" class=""/><path xmlns="http://www.w3.org/2000/svg" d="m464 376h16v16h-16zm0 0" fill="#ffb1a3" data-original="#000000" style="" class=""/><path xmlns="http://www.w3.org/2000/svg" d="m16 136h16v16h-16zm0 0" fill="#ffb1a3" data-original="#000000" style="" class=""/><path xmlns="http://www.w3.org/2000/svg" d="m296 384h16v16h-16zm0 0" fill="#ffb1a3" data-original="#000000" style="" class=""/><path xmlns="http://www.w3.org/2000/svg" d="m232 432h16v16h-16zm0 0" fill="#ffb1a3" data-original="#000000" style="" class=""/></g></svg>
