<svg id="_x31_px" fill="#FFB1A3" enable-background="new 0 0 24 24" height="512" viewBox="0 0 24 24" width="512" xmlns="http://www.w3.org/2000/svg"><path d="m12.5 9c-.276 0-.5-.224-.5-.5v-3.5c0-.551-.448-1-1-1s-1 .449-1 1v3.5c0 .276-.224.5-.5.5s-.5-.224-.5-.5v-3.5c0-1.103.897-2 2-2s2 .897 2 2v3.5c0 .276-.224.5-.5.5z"/><path d="m12.5 7h-3c-.276 0-.5-.224-.5-.5s.224-.5.5-.5h3c.276 0 .5.224.5.5s-.224.5-.5.5z"/><path d="m17.5 5.5h-3c-.276 0-.5-.224-.5-.5s.224-.5.5-.5h3c.276 0 .5.224.5.5s-.224.5-.5.5z"/><path d="m16 7c-.276 0-.5-.224-.5-.5v-3c0-.276.224-.5.5-.5s.5.224.5.5v3c0 .276-.224.5-.5.5z"/><path d="m18.5 24h-13c-1.379 0-2.5-1.122-2.5-2.5v-19c0-1.378 1.121-2.5 2.5-2.5h13c1.379 0 2.5 1.122 2.5 2.5v19c0 1.378-1.121 2.5-2.5 2.5zm-13-23c-.827 0-1.5.673-1.5 1.5v19c0 .827.673 1.5 1.5 1.5h13c.827 0 1.5-.673 1.5-1.5v-19c0-.827-.673-1.5-1.5-1.5z"/><path d="m14.5 14h-7.912c-.276 0-.5-.224-.5-.5s.224-.5.5-.5h7.912c.276 0 .5.224.5.5s-.224.5-.5.5z"/><path d="m14.5 20h-7.912c-.276 0-.5-.224-.5-.5s.224-.5.5-.5h7.912c.276 0 .5.224.5.5s-.224.5-.5.5z"/><path d="m17.5 17h-10.912c-.276 0-.5-.224-.5-.5s.224-.5.5-.5h10.912c.276 0 .5.224.5.5s-.224.5-.5.5z"/></svg>